# xmcd
#
# Track frame offsets: 
#        150
#        15630
#        27642
#        39327
#        53815
#        64442
#        73045
#        84470
#        95645
#        107752
#        121387
#        134460
#        147537
#        162657
#        172647
#        182977
#        197037
#        208757
#        218995
#        233777
#        246970
#        261090
#
# Disc length: 3667 seconds
#
# Revision: 5
# Processed by: cddbd v1.5.1PL0 Copyright (c) Steve Scherf et al.
# Submitted via: ExactAudioCopy v0.95a5
#
DISCID=510e5116
DTITLE=Tony Bennett - 40 Years: The Artistry Of Tony Bennett [CD2]
DYEAR=1991
DGENRE=Pop Vocal
TTITLE0=Begin The Beguine
TTITLE1=Put On A Happy Face
TTITLE2=The Best Is Yet To Come
TTITLE3=This Time The Dream's On Me
TTITLE4=Close Your Eyes
TTITLE5=Toot, Toot, Tootsie! (Good-Bye)
TTITLE6=Dancing In The Dark
TTITLE7=Stella By Starlight
TTITLE8=Tender Is The Night
TTITLE9=Once Upon A Time
TTITLE10=I Left My Heart In San Francisco
TTITLE11=Until I Met You
TTITLE12=If I Love Again
TTITLE13=I Wanna Be Around
TTITLE14=The Good Life
TTITLE15=It Was Me
TTITLE16=Spring In Manhattan
TTITLE17=The Moment Of Truth
TTITLE18=This Is All I Ask
TTITLE19=A Taste Of Honey
TTITLE20=When Joanna Loved Me
TTITLE21=I'll Be Around
EXTD=
EXTT0=
EXTT1=
EXTT2=
EXTT3=
EXTT4=
EXTT5=
EXTT6=
EXTT7=
EXTT8=
EXTT9=
EXTT10=
EXTT11=
EXTT12=
EXTT13=
EXTT14=
EXTT15=
EXTT16=
EXTT17=
EXTT18=
EXTT19=
EXTT20=
EXTT21=
PLAYORDER=
